<svg id="visual" viewBox="0 0 900 600" width="900" height="600" xmlns="http://www.w3.org/2000/svg" xmlns:xlink="http://www.w3.org/1999/xlink" version="1.1"><rect x="0" y="0" width="900" height="600" fill="#003264"></rect><defs><linearGradient id="grad1_0" x1="33.3%" y1="0%" x2="100%" y2="100%"><stop offset="20%" stop-color="#fcaf3c" stop-opacity="1"></stop><stop offset="80%" stop-color="#fcaf3c" stop-opacity="1"></stop></linearGradient></defs><defs><linearGradient id="grad1_1" x1="33.3%" y1="0%" x2="100%" y2="100%"><stop offset="20%" stop-color="#fcaf3c" stop-opacity="1"></stop><stop offset="80%" stop-color="#003264" stop-opacity="1"></stop></linearGradient></defs><defs><linearGradient id="grad2_0" x1="0%" y1="0%" x2="66.7%" y2="100%"><stop offset="20%" stop-color="#fcaf3c" stop-opacity="1"></stop><stop offset="80%" stop-color="#fcaf3c" stop-opacity="1"></stop></linearGradient></defs><defs><linearGradient id="grad2_1" x1="0%" y1="0%" x2="66.7%" y2="100%"><stop offset="20%" stop-color="#003264" stop-opacity="1"></stop><stop offset="80%" stop-color="#fcaf3c" stop-opacity="1"></stop></linearGradient></defs><g transform="translate(900, 0)"><path d="M0 432.7C-52.3 417.1 -104.7 401.6 -158.8 383.4C-213 365.3 -269 344.5 -305.9 305.9C-342.9 267.3 -360.8 210.9 -378.8 156.9C-396.7 102.9 -414.7 51.5 -432.7 0L0 0Z" fill="#c04a7a"></path><path d="M0 216.3C-26.2 208.6 -52.3 200.8 -79.4 191.7C-106.5 182.6 -134.5 172.3 -153 153C-171.5 133.7 -180.4 105.4 -189.4 78.5C-198.4 51.5 -207.4 25.7 -216.3 0L0 0Z" fill="#fcaf3c"></path></g><g transform="translate(0, 600)"><path d="M0 -432.7C38.1 -383.7 76.2 -334.8 133.2 -321.5C190.2 -308.2 266 -330.5 305.9 -305.9C345.9 -281.4 349.8 -210 364.9 -151.2C380.1 -92.4 406.4 -46.2 432.7 0L0 0Z" fill="#c04a7a"></path><path d="M0 -216.3C19 -191.9 38.1 -167.4 66.6 -160.8C95.1 -154.1 133 -165.3 153 -153C172.9 -140.7 174.9 -105 182.5 -75.6C190 -46.2 203.2 -23.1 216.3 0L0 0Z" fill="#fcaf3c"></path></g></svg>