<svg id="visual" viewBox="0 0 900 600" width="900" height="600" xmlns="http://www.w3.org/2000/svg" xmlns:xlink="http://www.w3.org/1999/xlink" version="1.1"><rect x="0" y="0" width="900" height="600" fill="#4FACF7"></rect><defs><linearGradient id="grad1_0" x1="33.3%" y1="0%" x2="100%" y2="100%"><stop offset="20%" stop-color="#ff0066" stop-opacity="1"></stop><stop offset="80%" stop-color="#ff0066" stop-opacity="1"></stop></linearGradient></defs><defs><linearGradient id="grad1_1" x1="33.3%" y1="0%" x2="100%" y2="100%"><stop offset="20%" stop-color="#ff0066" stop-opacity="1"></stop><stop offset="80%" stop-color="#4facf7" stop-opacity="1"></stop></linearGradient></defs><defs><linearGradient id="grad2_0" x1="0%" y1="0%" x2="66.7%" y2="100%"><stop offset="20%" stop-color="#ff0066" stop-opacity="1"></stop><stop offset="80%" stop-color="#ff0066" stop-opacity="1"></stop></linearGradient></defs><defs><linearGradient id="grad2_1" x1="0%" y1="0%" x2="66.7%" y2="100%"><stop offset="20%" stop-color="#4facf7" stop-opacity="1"></stop><stop offset="80%" stop-color="#ff0066" stop-opacity="1"></stop></linearGradient></defs><g transform="translate(900, 0)"><path d="M0 432.7C-55.3 426.2 -110.6 419.8 -165.6 399.7C-220.5 379.7 -275.1 346.1 -298.4 298.4C-321.7 250.7 -313.6 189.1 -330.7 137C-347.9 84.9 -390.3 42.5 -432.7 0L0 0Z" fill="#c373e0"></path><path d="M0 216.3C-27.7 213.1 -55.3 209.9 -82.8 199.9C-110.3 189.8 -137.6 173 -149.2 149.2C-160.8 125.4 -156.8 94.5 -165.4 68.5C-174 42.5 -195.1 21.2 -216.3 0L0 0Z" fill="#ff0066"></path></g><g transform="translate(0, 600)"><path d="M0 -432.7C45.5 -401.6 91 -370.5 147 -354.8C202.9 -339.1 269.2 -338.7 305.9 -305.9C342.6 -273.2 349.7 -207.9 365.9 -151.5C382 -95.1 407.3 -47.6 432.7 0L0 0Z" fill="#c373e0"></path><path d="M0 -216.3C22.8 -200.8 45.5 -185.2 73.5 -177.4C101.4 -169.5 134.6 -169.4 153 -153C171.3 -136.6 174.8 -104 182.9 -75.8C191 -47.6 203.7 -23.8 216.3 0L0 0Z" fill="#ff0066"></path></g></svg>