<svg id="visual" viewBox="0 0 900 600" width="900" height="600" xmlns="http://www.w3.org/2000/svg" xmlns:xlink="http://www.w3.org/1999/xlink" version="1.1"><rect x="0" y="0" width="900" height="600" fill="#03002c"></rect><defs><linearGradient id="grad1_0" x1="33.3%" y1="0%" x2="100%" y2="100%"><stop offset="20%" stop-color="#6600ff" stop-opacity="1"></stop><stop offset="80%" stop-color="#6600ff" stop-opacity="1"></stop></linearGradient></defs><defs><linearGradient id="grad1_1" x1="33.3%" y1="0%" x2="100%" y2="100%"><stop offset="20%" stop-color="#6600ff" stop-opacity="1"></stop><stop offset="80%" stop-color="#081b94" stop-opacity="1"></stop></linearGradient></defs><defs><linearGradient id="grad1_2" x1="33.3%" y1="0%" x2="100%" y2="100%"><stop offset="20%" stop-color="#03002c" stop-opacity="1"></stop><stop offset="80%" stop-color="#081b94" stop-opacity="1"></stop></linearGradient></defs><defs><linearGradient id="grad2_0" x1="0%" y1="0%" x2="66.7%" y2="100%"><stop offset="20%" stop-color="#6600ff" stop-opacity="1"></stop><stop offset="80%" stop-color="#6600ff" stop-opacity="1"></stop></linearGradient></defs><defs><linearGradient id="grad2_1" x1="0%" y1="0%" x2="66.7%" y2="100%"><stop offset="20%" stop-color="#081b94" stop-opacity="1"></stop><stop offset="80%" stop-color="#6600ff" stop-opacity="1"></stop></linearGradient></defs><defs><linearGradient id="grad2_2" x1="0%" y1="0%" x2="66.7%" y2="100%"><stop offset="20%" stop-color="#081b94" stop-opacity="1"></stop><stop offset="80%" stop-color="#03002c" stop-opacity="1"></stop></linearGradient></defs><g transform="translate(900, 0)"><path d="M0 405.6C-55.7 400.4 -111.4 395.3 -153.1 369.6C-194.7 343.8 -222.4 297.6 -260.9 260.9C-299.4 224.2 -348.8 197.1 -374.7 155.2C-400.7 113.3 -403.2 56.7 -405.6 0L0 0Z" fill="#00135e"></path><path d="M0 270.4C-37.1 267 -74.3 263.5 -102 246.4C-129.8 229.2 -148.3 198.4 -173.9 173.9C-199.6 149.5 -232.5 131.4 -249.8 103.5C-267.1 75.6 -268.8 37.8 -270.4 0L0 0Z" fill="#361bca"></path><path d="M0 135.2C-18.6 133.5 -37.1 131.8 -51 123.2C-64.9 114.6 -74.1 99.2 -87 87C-99.8 74.7 -116.3 65.7 -124.9 51.7C-133.6 37.8 -134.4 18.9 -135.2 0L0 0Z" fill="#6600ff"></path></g><g transform="translate(0, 600)"><path d="M0 -405.6C54.3 -400.9 108.6 -396.1 155.2 -374.7C201.9 -353.4 241 -315.5 276.5 -276.5C312 -237.5 344 -197.4 364.9 -151.2C385.9 -104.9 395.7 -52.5 405.6 0L0 0Z" fill="#00135e"></path><path d="M0 -270.4C36.2 -267.2 72.4 -264.1 103.5 -249.8C134.6 -235.6 160.6 -210.3 184.3 -184.3C208 -158.3 229.3 -131.6 243.3 -100.8C257.2 -69.9 263.8 -35 270.4 0L0 0Z" fill="#361bca"></path><path d="M0 -135.2C18.1 -133.6 36.2 -132 51.7 -124.9C67.3 -117.8 80.3 -105.2 92.2 -92.2C104 -79.2 114.7 -65.8 121.6 -50.4C128.6 -35 131.9 -17.5 135.2 0L0 0Z" fill="#6600ff"></path></g></svg>